<?xml version="1.0" encoding="UTF-8"?>
<svg id="Capa_2" data-name="Capa 2" xmlns="http://www.w3.org/2000/svg" viewBox="0 0 15.75 15.74">
  <g id="Capa_2-2" data-name="Capa 2">
    <g>
      <path d="M2.7,1.13h3.8V.16c0-.1.16-.14.24-.14.72-.07,1.55.05,2.28,0,.07-.02.21.08.21.14v.97h3.76c.14-.41.34-.77.74-.97,1.25-.61,2.52.75,1.82,1.92-.65,1.09-2.32.76-2.52-.47h-2.63l.85.44c1.67.97,2.81,2.6,3.23,4.47.64.08,1.2.55,1.25,1.22.1,1.16-1.11,1.92-2.1,1.31-.88-.54-.82-1.85.08-2.35.08-.04.28-.07.28-.16,0-.07-.09-.36-.12-.45-.61-2.13-2.45-3.87-4.64-4.29v.84c0,.09-.26.14-.33.14-.53.04-1.61.06-2.12,0-.07,0-.27-.08-.27-.14v-.84c-2.35.46-4.26,2.44-4.76,4.77.8.29,1.23,1.16.84,1.95-.17.35-.6.68-.99.72-1.9.22-2.16-2.48-.34-2.72.42-1.89,1.57-3.53,3.26-4.47l.81-.41h-2.63c-.18,1.02-1.41,1.46-2.22.81C-.17,1.9-.16.84.5.31c.79-.65,2.03-.18,2.2.82ZM8.76,2.24V.51l-.05-.05h-1.68l-.05.05v1.73h1.77ZM2.03.76C1.21-.1-.1,1.17.72,2.02s2.1-.42,1.31-1.26ZM14.23.51c-1.3.19-.75,2.24.53,1.67.88-.4.54-1.82-.53-1.67ZM1.21,7c-1.06.15-.94,1.93.31,1.76,1.11-.15.93-1.94-.31-1.76ZM14.26,7c-1.11.15-1.03,1.92.24,1.76,1.11-.13.93-1.92-.24-1.76Z"/>
      <path d="M11.14,6.38l1.05.45c.06.06.08.15.09.24.01.16.02.74-.06.85-.11.14-.88.35-1.07.47-.02.18-.19.4-.22.55-.04.21.29.8.34,1.05.01.06,0,.1-.02.16-.02.04-.55.59-.59.61-.02.01-.04.03-.07.03-.21.04-.87-.35-1.11-.41-.17.1-.56.17-.65.32-.12.2-.32.92-.47,1.02-.13.08-.89.08-1.02-.01s-.37-.89-.47-1.07l-.56-.25c-.27,0-.93.44-1.16.4-.14-.02-.47-.51-.64-.58-.05-.07-.05-.17-.03-.25.05-.25.35-.7.37-.93.02-.17-.19-.44-.22-.63-.07-.1-.89-.33-1.06-.46-.04-.03-.08-.13-.08-.18-.02-.16-.02-.6,0-.76,0-.05.03-.11.06-.15.15-.16.85-.33,1.07-.47.04-.18.25-.49.22-.67l-.4-1c0-.06.08-.17.12-.22.08-.1.48-.51.59-.52.22-.03.86.34,1.11.4.22-.12.55-.14.67-.36.1-.19.32-.89.45-.98.12-.08.89-.08,1.01,0,.16.11.35.89.51,1.08l.6.25c.15.02.82-.37,1.04-.39.04,0,.07,0,.12,0,.08.02.54.46.59.55.08.11.08.17.05.3-.05.25-.34.69-.36.91-.01.14.2.47.23.64ZM11.83,7.16s-.81-.3-.94-.38c-.19-.11-.24-.43-.32-.63-.05-.11-.14-.19-.16-.31l.38-1.04-.32-.32-.91.36c-.34-.03-.7-.25-1.02-.39l-.44-.98-.42-.02-.4.96c-.27.21-.64.26-.93.43-.36-.07-.71-.25-1.05-.38-.04,0-.34.26-.29.35l.36,1.04-.4.87-1.01.43v.42c.01.08.93.35,1.05.57s.19.57.34.8l-.38,1.05c.05.09.22.3.32.29.25-.03.66-.31.92-.36.07-.01.11-.01.18.02l.81.36.48,1.03c.12,0,.36.05.44-.05.13-.22.33-.91.53-1.02.11-.06.31-.11.44-.16.1-.04.25-.16.34-.17.23-.02.79.31,1.05.37.06,0,.29-.23.3-.29.02-.15-.3-.72-.34-.93-.04-.22.11-.34.19-.53l.21-.51,1.01-.46v-.43Z"/>
      <path d="M13.68,13.69l-.54,1.92c-.09.17-.28.18-.4.04l-1.34-3.96c-.04-.18.11-.29.28-.28l3.96,1.33c.14.13.12.32-.04.4l-1.92.54ZM14.68,12.89l-2.66-.86.86,2.6c.08,0,.05,0,.07-.04.08-.23.26-1.17.38-1.27l1.36-.43Z"/>
      <path d="M7.61,5.86c2.36-.3,2.39,3.3.06,3.07-1.75-.18-1.77-2.85-.06-3.07ZM7.8,6.31c-1.41.08-1.28,2.26.15,2.15s1.24-2.23-.15-2.15Z"/>
    </g>
  </g>
</svg>