<?xml version="1.0" encoding="UTF-8"?>
<svg id="Capa_2" data-name="Capa 2" xmlns="http://www.w3.org/2000/svg" viewBox="0 0 18.05 17.86">
  <g id="Capa_2-2" data-name="Capa 2">
    <g>
      <path d="M0,4.08L2.91.04c.05-.07.16-.03.16.05v3.55s.04.09.09.09h.88s.09-.04.09-.09V.09c0-.09.11-.12.16-.05l2.9,4.01s.02.07,0,.1l-1.3,2.23s-.03.03-.05.04l-.06.02s-.02,0-.03,0H1.45s-.06-.03-.08-.05l-1.37-2.28v-.04Z"/>
      <path d="M15.21,5.88h1.23s.05,0,.06.03h0s.03.04.03.06v1.34s0,.05-.03.06h0s-.04.03-.06.03h-3.63s-.09-.04-.09-.09v-1.34s.04-.09.09-.09h1.16s.09-.04.09-.09v-1.69c0-.24-.3-.83-.46-1.02-1.3-1.62-3.84-.78-3.98,1.3-.16,2.34.15,4.88,0,7.23-.16,2.62-3.34,4-5.36,2.29-1.3-1.09-1.24-2.49-1.2-4.05,0-.05-.04-.09-.09-.09H.97s-.09-.04-.09-.09v-2.04s.04-.09.09-.09h5.25s.09.04.09.09v2.04s-.04.09-.09.09h-2.01s-.09.04-.09.09v1.65c0,.61.48,1.36.98,1.7,1.42.96,3.29.04,3.47-1.63,0,0,0,0,0,0,.1-2.37-.13-4.84,0-7.19.14-2.54,2.81-4.06,5.02-2.72.69.42,1.54,1.54,1.54,2.37v1.76s.04.09.09.09Z"/>
      <path d="M17.21,12.22c.46,0,.84.38.84.84v2.63c0,1.11-1.22,2.07-2.27,2.13-.73.05-2.48.08-3.11-.17-.68-.27-1.49-1.16-1.49-1.93v-2.67c0-.46.38-.84.84-.84h5.19Z"/>
      <path d="M17.77,11.17h-2.36c-.16,0-.28-.13-.28-.28v-2.15c0-.16.13-.28.28-.28h1.63c.07,0,.14.03.2.08.33.31.58.65.71,1.1.03.09.11.35.11.42v.83c0,.16-.13.28-.28.28Z"/>
      <path d="M14.07,8.77v2.08c0,.17-.14.32-.32.32h-2.26c-.17,0-.32-.14-.32-.32v-.83c0-.07.08-.34.1-.42.13-.41.38-.78.7-1.06.06-.05.13-.08.21-.08h1.56c.17,0,.32.14.32.32Z"/>
    </g>
  </g>
</svg>