<?xml version="1.0" encoding="UTF-8"?>
<svg id="Capa_2" data-name="Capa 2" xmlns="http://www.w3.org/2000/svg" viewBox="0 0 13.53 16.07">
  <g id="Capa_2-2" data-name="Capa 2">
    <g>
      <path d="M1.6,8.08c.15.03.28.6.35.76.09.22.37.56.24.78-.08.12-.73.68-.73.73l1.76,1.76c.09.02.66-.74.85-.76.07,0,.55.22.61.27.11.1.1.34-.04.4-.21.1-.44-.11-.5-.09-.2.15-.66.77-.88.8-.1.02-.19-.05-.26-.1l-2.11-2.13c-.06-.07-.06-.18-.03-.26l.75-.74s.03-.06.03-.09c0-.17-.32-.59-.32-.81-.04-.03-.9.02-1.06,0-.12-.02-.21-.07-.26-.19v-3.12c-.01-.09.06-.22.16-.24.18-.03,1.04.05,1.11-.03l.36-.84c0-.05-.62-.63-.7-.75-.16-.23-.08-.3.08-.49.53-.62,1.28-1.29,1.87-1.87.1-.1.17-.26.33-.27.24-.01.7.65.92.79.08.05.36-.13.46-.18.13-.06.28-.09.41-.15.05-.07-.03-.89.01-1.08.02-.1.12-.2.23-.18h3.16c.08.05.13.13.15.21.03.16-.03,1.05,0,1.09.12.02.23.07.34.11.09.04.38.19.44.2.04,0,.06,0,.09-.03.19-.15.68-.78.89-.79.07,0,.13.04.18.07.6.72,1.42,1.33,2.02,2.04.17.2.28.27.11.52-.1.15-.68.63-.71.72l.33.83c.08.08.92,0,1.11.03.08.02.14.1.17.18v3.18c-.06.13-.17.17-.3.18-.15.02-.95-.03-.99,0,0,.21-.31.65-.32.81,0,.04,0,.07.03.09l.75.74c.04.08.03.19-.03.26l-2.11,2.13c-.07.06-.16.12-.26.1-.22-.04-.68-.65-.88-.8-.06-.03-.45.29-.64.07-.08-.1-.07-.26.03-.35.06-.05.6-.31.68-.3.19.02.76.77.85.76l1.76-1.76c0-.05-.65-.61-.73-.73-.13-.21.15-.56.24-.78.06-.14.22-.76.35-.76h1.01l.05-.05v-2.49h-.97s-.19-.09-.22-.13c-.06-.09-.11-.37-.16-.5-.06-.16-.35-.66-.35-.78,0-.05.02-.12.05-.16.08-.12.73-.68.73-.73l-1.73-1.76s-.04-.03-.08-.02c-.17.09-.49.55-.68.68-.05.04-.09.07-.16.06l-1.27-.5s-.14-.12-.14-.15V.51h-2.54v1.03c0,.16-.43.23-.55.28-.17.07-.34.14-.51.22-.18.08-.29.25-.51.09-.19-.14-.51-.6-.68-.68-.04-.02-.05-.02-.08.02l-1.72,1.76.67.75c.04.05.05.11.05.17,0,.14-.27.62-.34.8-.06.16-.13.61-.34.61h-1v2.54h1.09Z"/>
      <path d="M6.93,4.32c.38.73.88,1.45,1.25,2.19.06.13.13.24.15.39v7.95c-.02.57-.44,1.13-1.03,1.19-.69.07-1.56.08-1.91-.62-.19-.39-.09-1.52-.1-2.02,0-.16-.06-.37-.07-.54-.04-2.01.03-4.02,0-6.02.35-.87.89-1.65,1.32-2.49.11-.14.25-.11.39-.02ZM5.9,6.63h1.74l-.9-1.58-.84,1.58ZM7.76,7.13h-1.96v6.1c0,.13.3.41.43.46.23.09.85.09,1.08,0,.16-.07.46-.38.46-.56v-6.01ZM5.8,14.04v1.03c0,.14.28.4.42.44.18.05.83.04,1.02.02.23-.03.42-.17.51-.38.02-.04.08-.24.08-.27v-.9c-.56.39-1.44.4-2.03.06Z"/>
      <path d="M4.58,3.81c-.25.62-1.18.65-1.39,0-.29-.92.97-1.36,1.37-.52l4.39.02c.09-.02.12-.14.17-.21.63-.71,1.67.15,1.15.9-.33.47-1.09.34-1.3-.19h-.55c.45.39.83.82,1.02,1.4.05.14.13.67.16.71.02.03.19.11.24.15.43.41.2,1.18-.4,1.25-.88.1-1.16-1.08-.36-1.41-.1-.82-.61-1.56-1.37-1.9-1.47-.65-3.08.32-3.27,1.9.74.29.57,1.4-.23,1.42-.72.01-1.01-.89-.46-1.32.05-.04.17-.07.18-.09.02-.03.11-.58.16-.71.19-.58.57-1.01,1.02-1.4h-.55ZM4.05,3.4c-.23-.25-.58.17-.29.34.25.15.44-.19.29-.34ZM9.85,3.4c-.22-.22-.53.13-.31.32s.51-.12.31-.32ZM4.18,6.38c-.28.05-.25.51.11.43.25-.05.16-.48-.11-.43ZM9.31,6.38c-.25.04-.26.51.11.43.26-.06.15-.47-.11-.43Z"/>
      <path d="M6.96,13.15c-.16.16-.44.03-.44-.2v-5.1c.04-.34.48-.32.51,0v5.07c0,.06-.03.18-.07.23Z"/>
    </g>
  </g>
</svg>