<?xml version="1.0" encoding="UTF-8"?>
<svg id="Capa_1" xmlns="http://www.w3.org/2000/svg" version="1.1" viewBox="0 0 29 28">
  <!-- Generator: Adobe Illustrator 29.8.3, SVG Export Plug-In . SVG Version: 2.1.1 Build 3)  -->
  <path d="M5.5,9.1l2.9-4c0,0,.2,0,.2,0v3.5s0,0,0,0h.9s0,0,0,0v-3.5c0,0,.1-.1.2,0l2.9,4s0,0,0,0l-1.3,2.2s0,0,0,0h0s0,0,0,0h-4.3s0,0,0,0l-1.4-2.3h0Z"/>
  <path d="M20.7,10.9h1.2s0,0,0,0h0s0,0,0,0v1.3s0,0,0,0h0s0,0,0,0h-3.6s0,0,0,0v-1.3s0,0,0,0h1.2s0,0,0,0v-1.7c0-.2-.3-.8-.5-1-1.3-1.6-3.8-.8-4,1.3s.2,4.9,0,7.2-3.3,4-5.4,2.3-1.2-2.5-1.2-4.1,0,0,0,0h-2s0,0,0,0v-2s0,0,0,0h5.2s0,0,0,0v2s0,0,0,0h-2s0,0,0,0v1.7c0,.6.5,1.4,1,1.7,1.4,1,3.3,0,3.5-1.6s0,0,0,0c0-2.4-.1-4.8,0-7.2s2.8-4.1,5-2.7,1.5,1.5,1.5,2.4v1.8s0,0,0,0Z"/>
  <path d="M22.7,17.3c.5,0,.8.4.8.8v2.6c0,1.1-1.2,2.1-2.3,2.1s-2.5,0-3.1-.2-1.5-1.2-1.5-1.9v-2.7c0-.5.4-.8.8-.8h5.2Z"/>
  <path d="M23.2,16.2h-2.4c-.2,0-.3-.1-.3-.3v-2.1c0-.2.1-.3.3-.3h1.6c0,0,.1,0,.2,0,.3.3.6.7.7,1.1s.1.4.1.4v.8c0,.2-.1.3-.3.3Z"/>
  <path d="M19.5,13.8v2.1c0,.2-.1.3-.3.3h-2.3c-.2,0-.3-.1-.3-.3v-.8c0,0,0-.3.1-.4.1-.4.4-.8.7-1.1s.1,0,.2,0h1.6c.2,0,.3.1.3.3Z"/>
</svg>